<svg width="230" height="209" viewBox="0 0 230 209" fill="none" xmlns="http://www.w3.org/2000/svg">
<path d="M62.9385 103.042C59.2006 103.042 55.6984 101.459 52.5161 98.883L53.2907 95.2461L53.3243 95.1114C54.0147 91.2387 56.2035 84.7395 62.9385 84.7395C67.9898 84.7395 72.0981 88.8478 72.0981 93.8991C72.0813 98.9335 67.9729 103.042 62.9385 103.042ZM62.9385 75.462C54.3346 75.462 47.6669 81.0521 44.9561 90.2453C40.8141 84.0323 37.6823 76.5733 35.847 70.2929H26.5864V94.3873C26.5864 99.1355 22.7138 103.008 17.9656 103.008C13.2174 103.008 9.34483 99.1355 9.34483 94.3873V70.2929H0.084212V94.3873C0.050537 104.254 8.08202 112.353 17.9488 112.353C27.8155 112.353 35.847 104.254 35.847 94.3873V90.3463C37.6486 94.1011 39.8543 97.8895 42.5315 101.257L36.8573 127.928H46.3368L50.4451 108.581C54.0483 110.888 58.1904 112.336 62.9385 112.336C73.0915 112.336 81.3587 104.018 81.3587 93.8654C81.3587 83.7292 73.0915 75.462 62.9385 75.462Z" fill="#92A7FF"/>
<path d="M109.629 76.5059L115.606 100.6L122.19 76.5059H130.036L119.917 111.326H112.07L105.857 87.0799L99.6611 111.309H91.8148L81.6955 76.4891H89.5418L96.1252 100.584L102.103 76.4891H109.629V76.5059ZM148.81 75.462C138.623 75.462 130.373 83.7292 130.373 93.899C130.373 104.086 138.64 112.336 148.81 112.336C158.996 112.336 167.264 104.086 167.264 93.899C167.264 83.7124 158.996 75.462 148.81 75.462ZM148.81 104.759C142.816 104.759 137.966 99.91 137.966 93.9159C137.966 87.9217 142.832 83.0725 148.81 83.0725C154.804 83.0725 159.653 87.9217 159.653 93.9159C159.653 99.8932 154.804 104.759 148.81 104.759ZM189.674 84.3017C184.404 84.3017 180.144 88.5784 180.144 93.8317V111.309H172.247V76.5059H180.144V81.8602C180.144 81.8602 183.512 76.4891 190.432 76.4891H192.857V84.3017H189.674ZM216.176 92.552C221.783 89.3866 225.589 83.3756 225.589 76.4891H217.692C217.692 82.298 212.977 87.0125 207.168 87.0125H206.108V59.7021H198.211V111.309H206.108V94.9093H207.051C207.825 94.9093 208.835 95.4144 209.29 96.0374L220.504 111.309H229.966L216.176 92.552Z" fill="black"/>
</svg>
