<svg width="786" height="800" viewBox="0 0 786 800" fill="none" xmlns="http://www.w3.org/2000/svg">
<path d="M204.917 431.45C191.915 431.45 179.734 425.945 168.665 416.984L171.359 404.334L171.476 403.866C173.877 390.396 181.49 367.789 204.917 367.789C222.486 367.789 236.776 382.079 236.776 399.649C236.717 417.16 222.428 431.45 204.917 431.45ZM204.917 335.52C174.99 335.52 151.798 354.964 142.369 386.94C127.962 365.33 117.069 339.385 110.685 317.54H78.4744V401.347C78.4744 417.863 65.0044 431.333 48.489 431.333C31.9737 431.333 18.5037 417.863 18.5037 401.347V317.54H-13.7072V401.347C-13.8243 435.666 14.1113 463.836 48.4305 463.836C82.7497 463.836 110.685 435.666 110.685 401.347V387.292C116.952 400.352 124.624 413.529 133.936 425.242L114.199 518.009H147.171L161.461 450.718C173.994 458.741 188.401 463.778 204.917 463.778C240.231 463.778 268.987 434.846 268.987 399.532C268.987 364.275 240.231 335.52 204.917 335.52Z" fill="#92A7FF"/>
<path d="M367.318 339.151L388.108 422.958L411.007 339.151H438.299L403.101 460.264H375.81L354.199 375.93L332.647 460.205H305.356L270.158 339.092H297.45L320.348 422.899L341.139 339.092H367.318V339.151ZM503.599 335.52C468.167 335.52 439.47 364.275 439.47 399.649C439.47 435.081 468.225 463.778 503.599 463.778C539.031 463.778 567.786 435.081 567.786 399.649C567.786 364.217 539.031 335.52 503.599 335.52ZM503.599 437.423C482.75 437.423 465.883 420.557 465.883 399.707C465.883 378.858 482.808 361.991 503.599 361.991C524.448 361.991 541.315 378.858 541.315 399.707C541.315 420.498 524.448 437.423 503.599 437.423ZM645.736 366.267C627.406 366.267 612.589 381.142 612.589 399.415V460.205H585.122V339.151H612.589V357.775C612.589 357.775 624.302 339.092 648.372 339.092H656.805V366.267H645.736ZM737.918 394.964C757.42 383.953 770.656 363.046 770.656 339.092H743.189C743.189 359.297 726.791 375.696 706.586 375.696H702.896V280.703H675.429V460.205H702.896V403.163H706.176C708.87 403.163 712.384 404.92 713.965 407.087L752.969 460.205H785.883L737.918 394.964Z" fill="black"/>
</svg>
